<?xml version="1.0" encoding="UTF-8"?>
<svg width="18px" height="21px" viewBox="0 0 18 21" version="1.1" xmlns="http://www.w3.org/2000/svg" xmlns:xlink="http://www.w3.org/1999/xlink">
    <!-- Generator: Sketch 41 (35326) - http://www.bohemiancoding.com/sketch -->
    <title>Page 1</title>
    <desc>Created with Sketch.</desc>
    <defs></defs>
    <g id="Layouts" stroke="none" stroke-width="1" fill="none" fill-rule="evenodd" fill-opacity="0.4">
        <g id="Petition-|-Desktop-Copy" transform="translate(-1096.000000, -468.000000)" fill="#D00169">
            <path d="M1113.10588,480.733811 L1108.57046,478.115 L1113.10708,475.496189 C1113.96033,475.003176 1114.25315,473.912255 1113.76013,473.0575 C1113.26742,472.203944 1112.175,471.911433 1111.32174,472.404146 L1106.78513,475.023256 L1106.78513,469.785335 C1106.78513,468.799609 1105.98552,468 1104.99979,468 C1104.01407,468 1103.21446,468.799609 1103.21446,469.785335 L1103.21446,475.023256 L1098.67784,472.404146 C1097.82459,471.911433 1096.73217,472.203944 1096.23945,473.0575 C1095.74644,473.911056 1096.03925,475.003176 1096.89251,475.496189 L1101.43032,478.115 L1096.89371,480.733811 C1096.04015,481.226823 1095.74764,482.318944 1096.24035,483.1725 C1096.57063,483.744934 1097.17123,484.065617 1097.78832,484.065617 C1098.09132,484.065617 1098.39822,483.988593 1098.67904,483.827053 L1103.21566,481.206743 L1103.21566,486.445863 C1103.21566,487.43039 1104.01407,488.23 1104.99979,488.23 C1105.98552,488.23 1106.78513,487.43039 1106.78513,486.444665 L1106.78513,481.206743 L1111.32174,483.825854 C1111.60257,483.988593 1111.90946,484.064718 1112.21246,484.064718 C1112.82955,484.064718 1113.42896,483.744934 1113.76013,483.171301 C1114.25195,482.318944 1113.96033,481.226823 1113.10588,480.733811 Z" id="Page-1"></path>
        </g>
    </g>
</svg>