<?xml version="1.0" encoding="UTF-8"?>
<svg width="18px" height="22px" viewBox="0 0 18 22" version="1.1" xmlns="http://www.w3.org/2000/svg" xmlns:xlink="http://www.w3.org/1999/xlink">
    <!-- Generator: Sketch 41.2 (35397) - http://www.bohemiancoding.com/sketch -->
    <title>Combined Shape</title>
    <desc>Created with Sketch.</desc>
    <defs></defs>
    <g id="Symbols" stroke="none" stroke-width="1" fill="none" fill-rule="evenodd">
        <g id="Alert-/-Danger" transform="translate(-135.000000, -19.000000)" fill="#FFFFFF">
            <path d="M150.883978,33.8262727 L150.883978,28.0032715 C150.883978,24.7191042 148.660582,22.0726261 145.589319,21.3327432 L145.589319,20.5887725 C145.589319,19.7412455 144.843986,19 143.996459,19 C143.154382,19 142.410411,19.7398829 142.410411,20.5887725 L142.410411,21.3327432 C139.339148,22.0712636 137.115752,24.7191042 137.115752,28.0032715 L137.115752,33.8249101 L135,35.944409 L135,37.0051804 L152.99973,37.0051804 L152.99973,35.944409 L150.883978,33.8262727 Z M143.996459,40.1800003 L144.422266,40.1800003 C145.166237,40.0761033 145.693216,39.5440144 145.90612,38.9090504 C146.015126,38.6961467 146.119023,38.3824118 146.119023,38.0615234 L141.882069,38.0615234 C141.882069,39.2285763 142.832131,40.1800003 143.996459,40.1800003 Z" id="Combined-Shape"></path>
        </g>
    </g>
</svg>