<?xml version="1.0" encoding="UTF-8"?>
<svg width="24px" height="24px" viewBox="0 0 24 24" version="1.1" xmlns="http://www.w3.org/2000/svg" xmlns:xlink="http://www.w3.org/1999/xlink">
    <!-- Generator: Sketch 41.2 (35397) - http://www.bohemiancoding.com/sketch -->
    <title>Page 1</title>
    <desc>Created with Sketch.</desc>
    <defs></defs>
    <g id="Profiles" stroke="none" stroke-width="1" fill="none" fill-rule="evenodd">
        <g id="Profiles-/-Mobile" transform="translate(-54.000000, -396.000000)" fill="#FFFFFF">
            <path d="M75.2637808,400.380055 C75.0564384,400.130192 74.8390137,399.888658 74.6128219,399.65589 C72.4298082,397.404055 69.3766575,396 66,396 C62.6233425,396 59.5701918,397.404055 57.3871781,399.65589 C57.1609863,399.888658 56.9418082,400.130192 56.7362192,400.380055 C55.0275068,402.455671 54,405.109479 54,408 C54,410.890521 55.0275068,413.544329 56.7362192,415.619945 C56.9435616,415.869808 57.1609863,416.111342 57.3871781,416.34411 C59.5701918,418.595945 62.6233425,420 66,420 C69.3766575,420 72.4298082,418.595945 74.6128219,416.34411 C74.8390137,416.111342 75.0581918,415.869808 75.2637808,415.619945 C76.9724932,413.544329 78,410.890521 78,408 C78,405.109479 76.9724932,402.455671 75.2637808,400.380055 Z M69.4673973,418.452164 C70.441863,417.517151 71.2721096,416.203836 71.8906301,414.62663 C72.5976986,414.941808 73.251726,415.311781 73.8373699,415.729534 C72.6283836,416.953863 71.1353425,417.897205 69.4673973,418.452164 Z M58.1626301,415.729534 C58.748274,415.313534 59.4023014,414.943562 60.1093699,414.62663 C60.7278904,416.202082 61.558137,417.517151 62.5326027,418.452164 C60.8646575,417.897205 59.3716164,416.953863 58.1626301,415.729534 Z M62.5326027,397.547836 C61.558137,398.482849 60.7278904,399.796164 60.1093699,401.37337 C59.4023014,401.058192 58.748274,400.688219 58.1626301,400.270466 C59.3716164,399.046137 60.8646575,398.102795 62.5326027,397.547836 Z M73.8373699,400.270466 C73.251726,400.686466 72.5976986,401.056438 71.8906301,401.37337 C71.2721096,399.797918 70.441863,398.482849 69.4673973,397.547836 C71.1353425,398.102795 72.6283836,399.046137 73.8373699,400.270466 Z M65.5068493,407.506849 L59.9248219,407.506849 C59.9673425,405.753425 60.2378082,404.106082 60.6831781,402.657315 C62.1472877,403.185096 63.7810411,403.501589 65.5068493,403.552877 L65.5068493,407.506849 Z M65.5068493,408.493151 L65.5068493,412.447123 C63.7810411,412.498411 62.1490411,412.814904 60.6831781,413.342685 C60.2378082,411.893918 59.9673425,410.246575 59.9248219,408.493151 L65.5068493,408.493151 Z M66.4931507,408.493151 L72.0751781,408.493151 C72.0326575,410.246575 71.7621918,411.893918 71.3168219,413.342685 C69.8527123,412.814904 68.2189589,412.498411 66.4931507,412.447123 L66.4931507,408.493151 Z M66.4931507,407.506849 L66.4931507,403.552877 C68.2189589,403.501589 69.8509589,403.185096 71.3168219,402.657315 C71.7621918,404.106082 72.0326575,405.753425 72.0751781,407.506849 L66.4931507,407.506849 Z M70.9963836,401.731068 C69.6335342,402.220712 68.1080548,402.517041 66.4931507,402.566575 L66.4931507,397.025753 C68.3561644,397.297973 69.986411,399.09611 70.9963836,401.731068 Z M65.5068493,402.566575 C63.8919452,402.517041 62.3664658,402.220712 61.0036164,401.731068 C62.013589,399.097425 63.6438356,397.297973 65.5068493,397.025753 L65.5068493,402.566575 Z M61.0036164,414.268932 C62.3664658,413.779288 63.8919452,413.482959 65.5068493,413.433425 L65.5068493,418.974247 C63.6438356,418.702027 62.013589,416.90389 61.0036164,414.268932 Z M66.4931507,413.433425 C68.1080548,413.482959 69.6335342,413.779288 70.9963836,414.268932 C69.986411,416.90389 68.3561644,418.702027 66.4931507,418.974247 L66.4931507,413.433425 Z M59.7823562,402.297863 C59.2843836,403.859726 58.9845479,405.628493 58.940274,407.506849 L54.998137,407.506849 C55.107726,405.041096 56.0291507,402.782685 57.5050959,400.996384 C58.1884932,401.493041 58.9521096,401.931397 59.7823562,402.297863 Z M58.9385205,408.493151 C58.9827945,410.371507 59.2826301,412.140274 59.7806027,413.702137 C58.9503562,414.068603 58.1867397,414.506959 57.5050959,415.003616 C56.0309041,413.217315 55.107726,410.958904 54.998137,408.493151 L58.9385205,408.493151 Z M72.2176438,413.702137 C72.7156164,412.140274 73.0154521,410.371507 73.059726,408.493151 L77.0001096,408.493151 C76.8905205,410.958904 75.9690959,413.217315 74.4931507,415.003616 C73.8115068,414.506959 73.0478904,414.068603 72.2176438,413.702137 Z M73.0614795,407.506849 C73.0172055,405.628493 72.7173699,403.859726 72.2193973,402.297863 C73.0496438,401.931397 73.8132603,401.493041 74.4949041,400.996384 C75.9690959,402.782685 76.892274,405.041096 77.001863,407.506849 L73.0614795,407.506849 Z" id="Page-1"></path>
        </g>
    </g>
</svg>