<?xml version="1.0" encoding="UTF-8"?>
<svg width="19px" height="25px" viewBox="0 0 19 25" version="1.1" xmlns="http://www.w3.org/2000/svg" xmlns:xlink="http://www.w3.org/1999/xlink">
    <!-- Generator: Sketch 41.2 (35397) - http://www.bohemiancoding.com/sketch -->
    <title>Page 1</title>
    <desc>Created with Sketch.</desc>
    <defs></defs>
    <g id="Donation" stroke="none" stroke-width="1" fill="none" fill-rule="evenodd">
        <path d="M16.0889497,12.1320977 L15.4308138,12.1320977 L15.4279694,6.88052231 C15.4265472,3.30433103 12.5156028,0.397297825 8.93905599,0.398720052 C5.36250915,0.40014228 2.4558315,3.31108661 2.45725373,6.88763345 L2.45974262,12.1392088 L2.2264973,12.1392088 C0.995914873,12.1392088 0,13.1376126 0,14.368195 L0.00426668278,22.1737356 C0.00426668278,23.4043181 1.00302601,24.4002329 2.23360844,24.4002329 L16.0946386,24.3931218 C17.325221,24.3931218 18.3211359,23.394718 18.3211359,22.1641356 L18.3168692,14.358595 C18.3168692,13.1280126 17.3181099,12.1306755 16.0889497,12.1320977 Z M9.66627142,19.6253136 L9.66769356,22.3931495 L8.65797564,22.3931495 L8.6565535,19.6253136 C8.10227524,19.4198147 7.70372109,18.8907794 7.70372109,18.2643276 C7.70372109,17.4601086 8.35506026,16.8073473 9.15927925,16.8073473 C9.96349824,16.8073473 10.6162595,17.4586865 10.6162595,18.2629055 C10.6176817,18.8893572 10.2201941,19.4183925 9.66627142,19.6253136 Z M13.0395826,12.13278 L4.84984583,12.1370464 L4.84700155,6.88580216 C4.84557942,4.62780268 6.68155947,2.79040049 8.93991448,2.78897836 C11.197914,2.78755622 13.0353161,4.62353627 13.0367383,6.88153574 L13.0395826,12.13278 Z" id="Page-1" fill="#B6C5D7"></path>
    </g>
</svg>