<?xml version="1.0" encoding="UTF-8"?>
<svg width="23px" height="19px" viewBox="0 0 23 19" version="1.1" xmlns="http://www.w3.org/2000/svg" xmlns:xlink="http://www.w3.org/1999/xlink">
    <!-- Generator: Sketch 41 (35326) - http://www.bohemiancoding.com/sketch -->
    <title>Combined Shape</title>
    <desc>Created with Sketch.</desc>
    <defs></defs>
    <g id="Symbols" stroke="none" stroke-width="1" fill="none" fill-rule="evenodd" fill-opacity="0.8">
        <g id="UI-/-Hamburger-menu" fill="#02004D">
            <path d="M0,1.5 C0,0.671572875 0.66354084,0 1.50909424,0 L21.4909058,0 C22.3243555,0 23,0.665797234 23,1.5 C23,2.32842712 22.3364592,3 21.4909058,3 L1.50909424,3 C0.675644504,3 0,2.33420277 0,1.5 Z M0,9.5 C0,8.67157288 0.666420147,8 1.50863659,8 L15.4913634,8 C16.3245604,8 17,8.66579723 17,9.5 C17,10.3284271 16.3335799,11 15.4913634,11 L1.50863659,11 C0.67543961,11 0,10.3342028 0,9.5 Z M0,17.5 C0,16.6715729 0.665435791,16 1.5032506,16 L18.4967494,16 C19.3269718,16 20,16.6657972 20,17.5 C20,18.3284271 19.3345642,19 18.4967494,19 L1.5032506,19 C0.673028218,19 0,18.3342028 0,17.5 Z" id="Combined-Shape"></path>
        </g>
    </g>
</svg>