<?xml version="1.0" encoding="UTF-8"?>
<svg width="30px" height="42px" viewBox="0 0 30 42" version="1.1" xmlns="http://www.w3.org/2000/svg" xmlns:xlink="http://www.w3.org/1999/xlink">
    <!-- Generator: Sketch 41.2 (35397) - http://www.bohemiancoding.com/sketch -->
    <title>nationbuilder</title>
    <desc>Created with Sketch.</desc>
    <defs></defs>
    <g id="Symbols" stroke="none" stroke-width="1" fill="none" fill-rule="evenodd">
        <g id="Content-/-Logos-/-NationBuilder-Logo" fill="#02004D">
            <g id="nationbuilder">
                <polygon id="Shape" points="7.46903779 11.4382979 6.93553509 11.706383 6.93553509 12.2425532 14.9380756 15.8170213 14.9380756 15.3702128 15.2048269 15.2808511"></polygon>
                <polygon id="Shape" points="8.80279454 4.2893617 8.53604319 4.46808511 8.53604319 4.64680851 14.9380756 7.59574468 14.9380756 7.41702128 15.0269927 7.32765957"></polygon>
                <polygon id="Shape" points="10.2254684 2.77021277 10.2254684 3.03829787 14.8491585 5.18297872 19.4728485 3.03829787 19.4728485 2.77021277 19.2060972 2.68085106 14.8491585 4.46808511 10.5811369 2.59148936"></polygon>
                <polygon id="Shape" points="11.6481423 1.60851064 11.6481423 1.78723404 14.8491585 3.30638298 18.1390918 1.78723404 18.1390918 1.60851064 17.8723404 1.42978723 14.8491585 3.03829787 11.9148936 1.42978723"></polygon>
                <polygon id="Shape" points="0.177834233 14.6553191 0.177834233 15.2808511 6.57986662 17.9617021 6.57986662 17.3361702 0.533502699 14.4765957"></polygon>
                <polygon id="Shape" points="23.2962845 21.3574468 29.6983169 18.4978723 29.6983169 17.693617 29.0758971 17.4255319 23.2962845 20.106383"></polygon>
                <polygon id="Shape" points="0.177834233 14.6553191 6.57986662 17.693617 6.57986662 11.6170213"></polygon>
                <polygon id="Shape" points="2.22292791 14.8340426 6.57986662 12.7787234 6.57986662 12.3319149 1.68942521 14.5659574"></polygon>
                <path d="M6.57986662,12.7787234 L6.57986662,12.3319149" id="Shape"></path>
                <path d="M0.26675135,14.6553191 L0.177834233,14.6553191 L0.177834233,34.3148936 L6.66878374,37.1744681 L6.66878374,17.5148936 L0.26675135,14.6553191 L0.26675135,14.6553191 L0.26675135,14.6553191 Z M1.0670054,16.6212766 L2.93426485,17.4255319 L2.93426485,19.212766 L1.0670054,18.4085106 L1.0670054,16.6212766 L1.0670054,16.6212766 L1.0670054,16.6212766 Z M1.0670054,20.1957447 L2.93426485,21 L2.93426485,22.787234 L1.0670054,21.9829787 L1.0670054,20.1957447 L1.0670054,20.1957447 L1.0670054,20.1957447 Z M1.0670054,23.6808511 L2.93426485,24.4851064 L2.93426485,26.2723404 L1.0670054,25.4680851 L1.0670054,23.6808511 L1.0670054,23.6808511 L1.0670054,23.6808511 Z M1.0670054,27.2553191 L2.93426485,28.0595745 L2.93426485,29.8468085 L1.0670054,29.0425532 L1.0670054,27.2553191 L1.0670054,27.2553191 L1.0670054,27.2553191 Z M1.0670054,31.0085106 L2.93426485,31.812766 L2.93426485,33.6 L1.0670054,32.7957447 L1.0670054,31.0085106 L1.0670054,31.0085106 L1.0670054,31.0085106 Z M5.33502699,34.7617021 L3.55668466,33.9574468 L3.55668466,32.1702128 L5.42394411,32.9744681 L5.42394411,34.7617021 L5.33502699,34.7617021 L5.33502699,34.7617021 Z M5.33502699,31.0085106 L3.55668466,30.2042553 L3.55668466,28.4170213 L5.42394411,29.2212766 L5.42394411,31.0085106 L5.33502699,31.0085106 L5.33502699,31.0085106 Z M5.33502699,27.4340426 L3.55668466,26.6297872 L3.55668466,24.8425532 L5.42394411,25.6468085 L5.42394411,27.4340426 L5.33502699,27.4340426 L5.33502699,27.4340426 Z M5.33502699,23.9489362 L3.55668466,23.1446809 L3.55668466,21.3574468 L5.42394411,22.1617021 L5.42394411,23.9489362 L5.33502699,23.9489362 L5.33502699,23.9489362 Z M5.33502699,20.3744681 L3.55668466,19.5702128 L3.55668466,17.7829787 L5.42394411,18.587234 L5.42394411,20.3744681 L5.33502699,20.3744681 L5.33502699,20.3744681 Z" id="Shape"></path>
                <polygon id="Shape" points="29.6983169 17.693617 23.2962845 20.7319149 23.2962845 14.6553191"></polygon>
                <polygon id="Shape" points="27.6532232 17.8723404 23.2962845 15.8170213 23.2962845 15.3702128 28.1867259 17.6042553"></polygon>
                <path d="M23.2962845,15.8170213 L23.2962845,15.3702128" id="Shape"></path>
                <path d="M29.6093998,17.693617 L23.2962845,20.5531915 L23.2962845,20.7319149 L23.2962845,20.8212766 L23.2962845,37.3531915 L29.6983169,34.4042553 L29.6983169,17.693617 L29.6093998,17.693617 L29.6093998,17.693617 L29.6093998,17.693617 Z M26.675135,23.6808511 L26.675135,24.7531915 L25.6970467,25.2 L25.6970467,24.1276596 L26.675135,23.6808511 L26.675135,23.6808511 L26.675135,23.6808511 Z M25.6970467,22.9659574 L25.6970467,21.893617 L26.675135,21.4468085 L26.675135,22.5191489 L25.6970467,22.9659574 L25.6970467,22.9659574 L25.6970467,22.9659574 Z M26.675135,26.0042553 L26.675135,27.0765957 L25.6970467,27.5234043 L25.6970467,26.4510638 L26.675135,26.0042553 L26.675135,26.0042553 L26.675135,26.0042553 Z M26.675135,28.3276596 L26.675135,29.4 L25.6970467,29.8468085 L25.6970467,28.7744681 L26.675135,28.3276596 L26.675135,28.3276596 L26.675135,28.3276596 Z M26.9418863,29.3106383 L26.9418863,28.2382979 L27.7421404,27.8808511 L27.7421404,28.9531915 L26.9418863,29.3106383 L26.9418863,29.3106383 L26.9418863,29.3106383 Z M26.9418863,26.987234 L26.9418863,25.9148936 L27.7421404,25.5574468 L27.7421404,26.6297872 L26.9418863,26.987234 L26.9418863,26.987234 L26.9418863,26.987234 Z M26.9418863,24.6638298 L26.9418863,23.5914894 L27.7421404,23.2340426 L27.7421404,24.306383 L26.9418863,24.6638298 L26.9418863,24.6638298 L26.9418863,24.6638298 Z M26.9418863,22.4297872 L26.9418863,21.3574468 L27.7421404,21 L27.7421404,22.0723404 L26.9418863,22.4297872 L26.9418863,22.4297872 L26.9418863,22.4297872 Z M24.452207,22.4297872 L25.5192124,21.9829787 L25.5192124,23.0553191 L24.452207,23.5021277 L24.452207,22.4297872 L24.452207,22.4297872 L24.452207,22.4297872 Z M24.452207,24.6638298 L25.5192124,24.2170213 L25.5192124,25.2893617 L24.452207,25.7361702 L24.452207,24.6638298 L24.452207,24.6638298 L24.452207,24.6638298 Z M24.452207,26.987234 L25.5192124,26.5404255 L25.5192124,27.612766 L24.452207,28.0595745 L24.452207,26.987234 L24.452207,26.987234 L24.452207,26.987234 Z M24.452207,29.3106383 L25.5192124,28.8638298 L25.5192124,29.9361702 L24.452207,30.3829787 L24.452207,29.3106383 L24.452207,29.3106383 L24.452207,29.3106383 Z M28.7202286,28.506383 L27.9199746,28.8638298 L27.9199746,27.7021277 L28.7202286,27.3446809 L28.7202286,28.506383 L28.7202286,28.506383 L28.7202286,28.506383 Z M28.7202286,26.1829787 L27.9199746,26.5404255 L27.9199746,25.4680851 L28.7202286,25.1106383 L28.7202286,26.1829787 L28.7202286,26.1829787 L28.7202286,26.1829787 Z M28.7202286,23.8595745 L27.9199746,24.2170213 L27.9199746,23.1446809 L28.7202286,22.787234 L28.7202286,23.8595745 L28.7202286,23.8595745 L28.7202286,23.8595745 Z M28.7202286,21.6255319 L27.9199746,21.9829787 L27.9199746,20.9106383 L28.7202286,20.5531915 L28.7202286,21.6255319 L28.7202286,21.6255319 L28.7202286,21.6255319 Z" id="Shape"></path>
                <polygon id="Shape" points="18.6725945 12.5106383 17.9612575 13.0468085 15.1159098 14.387234 11.6481423 12.7787234 10.1365513 11.6170213 8.98062877 10.7234043 6.93553509 11.706383 14.9380756 15.3702128 22.851699 11.706383 20.9844395 10.812766"></polygon>
                <path d="M6.93553509,11.706383 L6.93553509,37.3531915 L14.9380756,41.0170213 L14.9380756,15.3702128 L6.93553509,11.706383 L6.93553509,11.706383 L6.93553509,11.706383 Z M13.6043188,37.9787234 L8.09145761,35.4765957 L8.09145761,34.4042553 L13.6043188,36.906383 L13.6043188,37.9787234 L13.6043188,37.9787234 L13.6043188,37.9787234 Z M13.6043188,35.9234043 L8.09145761,33.4212766 L8.09145761,32.3489362 L13.6043188,34.8510638 L13.6043188,35.9234043 L13.6043188,35.9234043 L13.6043188,35.9234043 Z M13.6043188,33.9574468 L8.09145761,31.4553191 L8.09145761,30.3829787 L13.6043188,32.8851064 L13.6043188,33.9574468 L13.6043188,33.9574468 L13.6043188,33.9574468 Z M13.6043188,31.9021277 L8.09145761,29.4 L8.09145761,28.3276596 L13.6043188,30.8297872 L13.6043188,31.9021277 L13.6043188,31.9021277 L13.6043188,31.9021277 Z M13.6043188,29.8468085 L8.09145761,27.3446809 L8.09145761,26.2723404 L13.6043188,28.7744681 L13.6043188,29.8468085 L13.6043188,29.8468085 L13.6043188,29.8468085 Z M13.6043188,27.8808511 L8.09145761,25.3787234 L8.09145761,24.306383 L13.6043188,26.8085106 L13.6043188,27.8808511 L13.6043188,27.8808511 L13.6043188,27.8808511 Z M13.6043188,25.8255319 L8.09145761,23.3234043 L8.09145761,22.3404255 L13.6043188,24.8425532 L13.6043188,25.8255319 L13.6043188,25.8255319 L13.6043188,25.8255319 Z M13.6043188,23.8595745 L8.09145761,21.3574468 L8.09145761,20.2851064 L13.6043188,22.787234 L13.6043188,23.8595745 L13.6043188,23.8595745 L13.6043188,23.8595745 Z M13.6043188,21.8042553 L8.09145761,19.3021277 L8.09145761,18.2297872 L13.6043188,20.7319149 L13.6043188,21.8042553 L13.6043188,21.8042553 L13.6043188,21.8042553 Z M13.6043188,19.8382979 L8.09145761,17.3361702 L8.09145761,16.2638298 L13.6043188,18.7659574 L13.6043188,19.8382979 L13.6043188,19.8382979 L13.6043188,19.8382979 Z M13.6043188,17.7829787 L8.09145761,15.2808511 L8.09145761,14.2085106 L13.6043188,16.7106383 L13.6043188,17.7829787 L13.6043188,17.7829787 L13.6043188,17.7829787 Z" id="Shape"></path>
                <path d="M15.2048269,15.5489362 L15.2048269,41.0170213 L22.851699,37.5319149 L22.851699,12.0638298 L15.2048269,15.5489362 L15.2048269,15.5489362 L15.2048269,15.5489362 Z M21.8736107,35.2085106 L16.3607494,37.7106383 L16.3607494,36.6382979 L21.8736107,34.1361702 L21.8736107,35.2085106 L21.8736107,35.2085106 L21.8736107,35.2085106 Z M21.8736107,33.1531915 L16.3607494,35.6553191 L16.3607494,34.5829787 L21.8736107,32.0808511 L21.8736107,33.1531915 L21.8736107,33.1531915 L21.8736107,33.1531915 Z M21.8736107,31.187234 L16.3607494,33.6893617 L16.3607494,32.6170213 L21.8736107,30.1148936 L21.8736107,31.187234 L21.8736107,31.187234 L21.8736107,31.187234 Z M21.8736107,29.1319149 L16.3607494,31.6340426 L16.3607494,30.5617021 L21.8736107,28.0595745 L21.8736107,29.1319149 L21.8736107,29.1319149 L21.8736107,29.1319149 Z M21.8736107,27.1659574 L16.3607494,29.6680851 L16.3607494,28.5957447 L21.8736107,26.093617 L21.8736107,27.1659574 L21.8736107,27.1659574 L21.8736107,27.1659574 Z M21.8736107,25.1106383 L16.3607494,27.612766 L16.3607494,26.5404255 L21.8736107,24.0382979 L21.8736107,25.1106383 L21.8736107,25.1106383 L21.8736107,25.1106383 Z M21.8736107,23.1446809 L16.3607494,25.6468085 L16.3607494,24.5744681 L21.8736107,22.0723404 L21.8736107,23.1446809 L21.8736107,23.1446809 L21.8736107,23.1446809 Z M21.8736107,21.0893617 L16.3607494,23.5914894 L16.3607494,22.5191489 L21.8736107,20.0170213 L21.8736107,21.0893617 L21.8736107,21.0893617 L21.8736107,21.0893617 Z M21.8736107,19.1234043 L16.3607494,21.6255319 L16.3607494,20.5531915 L21.8736107,18.0510638 L21.8736107,19.1234043 L21.8736107,19.1234043 L21.8736107,19.1234043 Z M21.8736107,17.0680851 L16.3607494,19.5702128 L16.3607494,18.4978723 L21.8736107,15.9957447 L21.8736107,17.0680851 L21.8736107,17.0680851 L21.8736107,17.0680851 Z M21.8736107,15.012766 L16.3607494,17.5148936 L16.3607494,16.4425532 L21.8736107,13.9404255 L21.8736107,15.012766 L21.8736107,15.012766 L21.8736107,15.012766 Z" id="Shape"></path>
                <polygon id="Shape" points="8.53604319 4.46808511 14.9380756 7.41702128 21.2511909 4.46808511 14.8491585 1.51914894"></polygon>
                <polygon id="Shape" points="10.2254684 2.77021277 14.9380756 4.91489362 19.5617656 2.77021277 14.8491585 0.714893617"></polygon>
                <polygon id="Shape" points="10.2254684 2.77021277 14.9380756 4.91489362 14.9380756 6.52340426 10.2254684 4.3787234"></polygon>
                <polygon id="Shape" points="19.4728485 2.77021277 14.8491585 4.91489362 14.8491585 6.52340426 19.4728485 4.3787234"></polygon>
                <polygon id="Shape" points="11.6481423 1.60851064 14.9380756 3.03829787 18.1390918 1.60851064 14.8491585 0.0893617021"></polygon>
                <polygon id="Shape" points="11.6481423 1.60851064 14.9380756 3.03829787 14.9380756 4.2 11.6481423 2.68085106"></polygon>
                <polygon id="Shape" points="18.1390918 1.60851064 14.8491585 3.03829787 14.8491585 4.2 18.1390918 2.68085106"></polygon>
                <polygon id="Shape" points="12.5373134 1.69787234 14.8491585 0.625531915 14.8491585 0.357446809 12.181645 1.51914894"></polygon>
                <polygon id="Shape" points="17.3388377 1.69787234 14.8491585 0.625531915 14.8491585 0.357446809 17.6055891 1.51914894"></polygon>
                <path d="M15.2048269,7.50638298 L15.2048269,14.5659574 L21.340108,11.706383 L21.340108,4.73617021 L15.2048269,7.50638298 L15.2048269,7.50638298 L15.2048269,7.50638298 Z M20.7176882,10.9021277 L15.7383296,13.1361702 L15.7383296,12.1531915 L20.7176882,9.91914894 L20.7176882,10.9021277 L20.7176882,10.9021277 L20.7176882,10.9021277 Z M20.7176882,9.02553191 L15.7383296,11.2595745 L15.7383296,10.2765957 L20.7176882,8.04255319 L20.7176882,9.02553191 L20.7176882,9.02553191 L20.7176882,9.02553191 Z M20.7176882,7.23829787 L15.7383296,9.47234043 L15.7383296,8.4893617 L20.7176882,6.25531915 L20.7176882,7.23829787 L20.7176882,7.23829787 L20.7176882,7.23829787 Z" id="Shape"></path>
                <path d="M8.53604319,4.46808511 L8.53604319,11.6170213 L14.9380756,14.5659574 L14.9380756,7.32765957 L8.53604319,4.46808511 L8.53604319,4.46808511 L8.53604319,4.46808511 Z M14.0489044,12.9574468 L9.06954589,10.7234043 L9.06954589,9.82978723 L14.0489044,12.0638298 L14.0489044,12.9574468 L14.0489044,12.9574468 L14.0489044,12.9574468 Z M14.0489044,11.1702128 L9.06954589,8.93617021 L9.06954589,7.95319149 L14.0489044,10.187234 L14.0489044,11.1702128 L14.0489044,11.1702128 L14.0489044,11.1702128 Z M14.0489044,9.38297872 L9.06954589,7.14893617 L9.06954589,6.16595745 L14.0489044,8.4 L14.0489044,9.38297872 L14.0489044,9.38297872 L14.0489044,9.38297872 Z" id="Shape"></path>
                <path d="M21.7846936,32.706383 L21.7846936,33.1531915 L16.2718323,35.6553191 L16.2718323,35.2978723 L15.1159098,35.8340426 L13.6043188,35.2085106 L13.6043188,35.9234043 L8.09145761,33.4212766 L8.09145761,32.7957447 L0.0889171165,29.3106383 L0.0889171165,34.2255319 L15.1159098,41.1957447 L29.6093998,34.4042553 L29.6093998,29.0425532 L21.7846936,32.706383 L21.7846936,32.706383 L21.7846936,32.706383 Z M13.6043188,37.8893617 L8.09145761,35.387234 L8.09145761,34.3148936 L13.6043188,36.8170213 L13.6043188,37.8893617 L13.6043188,37.8893617 L13.6043188,37.8893617 Z M21.8736107,35.1191489 L16.3607494,37.6212766 L16.3607494,36.5489362 L21.8736107,34.0468085 L21.8736107,35.1191489 L21.8736107,35.1191489 L21.8736107,35.1191489 Z" id="Shape"></path>
            </g>
        </g>
    </g>
</svg>