<?xml version="1.0" standalone="no"?>
<!DOCTYPE svg PUBLIC "-//W3C//DTD SVG 20010904//EN"
 "http://www.w3.org/TR/2001/REC-SVG-20010904/DTD/svg10.dtd">
<svg version="1.0" xmlns="http://www.w3.org/2000/svg"
 width="4992.000000pt" height="1488.000000pt" viewBox="0 0 4992.000000 1488.000000"
 preserveAspectRatio="xMidYMid meet">

<g transform="translate(0.000000,1488.000000) scale(0.100000,-0.100000)"
fill="#000000" stroke="none">
<path d="M32453 14322 c-381 -424 -790 -937 -1066 -1337 -54 -77 -126 -178
-162 -225 -184 -239 -277 -546 -262 -859 9 -199 50 -348 143 -531 309 -604
1048 -853 1672 -565 236 109 478 343 605 583 106 202 152 412 144 652 -8 199
-45 348 -131 518 -19 37 -49 117 -69 177 -122 387 -369 997 -616 1525 -56 118
-101 216 -101 217 0 15 -35 -20 -157 -155z"/>
<path d="M24828 13813 c-374 -826 -614 -1498 -699 -1956 -11 -61 -23 -173 -26
-247 -5 -121 -2 -147 20 -248 56 -244 174 -451 358 -626 175 -168 405 -282
643 -321 678 -110 1310 346 1422 1024 22 135 15 340 -15 454 -89 339 -488 932
-1132 1683 -192 224 -437 494 -447 494 -4 0 -60 -116 -124 -257z"/>
<path d="M37743 13403 c-129 -169 -316 -439 -403 -581 -41 -68 -100 -164 -131
-213 -122 -192 -154 -366 -103 -563 59 -228 259 -421 494 -477 78 -18 232 -16
310 4 216 56 400 230 476 452 25 71 28 94 28 205 0 110 -3 134 -27 205 -16 44
-41 101 -57 127 -16 26 -50 98 -76 160 -91 216 -392 798 -413 798 -5 0 -49
-53 -98 -117z"/>
<path d="M9280 12813 c-479 -958 -796 -1758 -905 -2283 -35 -170 -43 -370 -21
-500 50 -285 193 -550 403 -751 184 -175 381 -283 627 -346 140 -35 396 -44
548 -18 725 121 1229 796 1138 1524 -39 308 -335 837 -861 1538 -236 313 -380
493 -780 970 -24 28 -46 52 -49 52 -3 1 -48 -83 -100 -186z"/>
<path d="M39782 10681 c-40 -10 -112 -38 -160 -61 -71 -35 -104 -60 -178 -134
-78 -78 -98 -105 -137 -186 -54 -114 -77 -209 -77 -325 0 -116 23 -211 77
-325 39 -81 59 -108 137 -186 78 -78 105 -98 186 -137 114 -54 209 -77 325
-77 116 0 211 23 325 77 81 39 108 59 186 137 78 78 98 105 137 186 54 114 77
209 77 325 0 117 -23 212 -78 325 -39 80 -60 109 -137 186 -78 78 -104 98
-185 137 -52 25 -127 52 -167 61 -94 21 -239 19 -331 -3z"/>
<path d="M21985 9833 c-102 -220 -234 -530 -331 -776 -60 -152 -81 -194 -90
-185 -6 7 -72 108 -147 223 -75 116 -147 225 -160 243 l-25 33 -132 -203
c-725 -1106 -1173 -1984 -1254 -2457 -50 -295 32 -648 217 -928 90 -137 254
-304 385 -391 159 -105 321 -174 505 -214 147 -31 417 -31 564 0 279 60 507
184 709 386 252 253 390 560 411 915 l6 108 94 26 c389 110 697 423 800 814
34 129 43 365 20 489 -67 355 -539 1038 -1314 1902 -90 100 -167 182 -172 182
-4 0 -43 -75 -86 -167z"/>
<path d="M15522 8751 c-40 -10 -112 -38 -160 -61 -71 -35 -104 -60 -178 -134
-78 -78 -98 -105 -137 -186 -54 -114 -77 -209 -77 -325 0 -116 23 -211 77
-325 39 -81 59 -108 137 -186 78 -78 105 -98 186 -137 114 -54 209 -77 325
-77 116 0 211 23 325 77 81 39 108 59 186 137 78 78 98 105 137 186 54 114 77
209 77 325 0 117 -23 212 -78 325 -39 80 -60 109 -137 186 -78 78 -104 98
-185 137 -52 25 -127 52 -167 61 -94 21 -239 19 -331 -3z"/>
<path d="M43150 7903 c-578 -672 -988 -1277 -1065 -1572 -39 -153 -28 -354 29
-524 168 -492 698 -767 1199 -622 304 88 553 324 651 616 44 133 58 242 46
362 -29 291 -185 751 -467 1382 -70 157 -246 515 -252 515 -3 0 -67 -71 -141
-157z"/>
<path d="M12157 5439 c-38 -49 -71 -98 -74 -107 -9 -25 -350 -511 -383 -547
-77 -83 -670 -1035 -670 -1076 0 -12 -178 -358 -195 -379 -17 -21 -98 -207
-141 -327 -66 -182 -83 -275 -85 -461 -2 -222 22 -368 81 -497 15 -33 35 -82
44 -108 39 -116 124 -253 219 -351 37 -39 67 -75 67 -82 0 -21 253 -229 268
-220 4 2 34 -14 67 -35 160 -104 296 -151 545 -186 173 -25 193 -26 313 -15
122 11 301 46 322 62 6 5 39 19 75 33 201 75 371 187 535 352 131 130 198 221
276 372 28 54 55 103 59 108 16 19 61 166 80 258 28 137 34 229 20 352 -6 61
-13 126 -15 147 -9 83 -70 297 -111 385 -13 29 -31 80 -40 113 -19 75 -104
284 -149 365 -18 33 -43 89 -55 125 -26 74 -142 314 -162 333 -7 8 -23 38 -36
68 -43 101 -167 343 -184 361 -18 18 -78 131 -78 147 0 12 -158 294 -169 301
-12 7 -71 109 -71 122 0 16 -166 293 -194 322 -13 14 -38 55 -55 91 -18 36
-33 65 -34 65 -1 0 -33 -41 -70 -91z"/>
<path d="M14010 4265 l0 -305 2255 0 2255 0 0 305 0 305 -2255 0 -2255 0 0
-305z m239 70 l36 -100 3 103 c3 97 4 103 23 100 19 -3 20 -11 20 -177 1 -150
-1 -175 -15 -177 -21 -3 -29 10 -61 101 -16 44 -32 84 -37 90 -4 5 -8 -37 -8
-92 0 -96 -1 -102 -20 -100 -19 1 -20 8 -20 180 0 176 0 178 21 175 17 -2 29
-23 58 -103z m339 -72 l2 -173 -23 -5 c-13 -4 -43 -5 -68 -3 l-44 3 -3 165
c-1 90 0 170 3 178 3 9 22 12 67 10 l63 -3 3 -172z m332 -8 l0 -175 -70 0 -70
0 0 45 c0 38 3 45 19 45 13 0 21 -8 23 -22 2 -17 10 -23 28 -23 l25 0 3 153
c2 144 4 152 22 152 19 0 20 -7 20 -175z m180 19 l0 -155 28 3 27 3 2 150 c1
144 2 150 22 153 21 3 21 1 19 -170 l-3 -173 -67 -3 -68 -3 0 176 c0 168 1
175 20 175 19 0 20 -7 20 -156z m368 109 c3 -38 1 -43 -17 -43 -14 0 -21 6
-21 20 0 16 -7 20 -31 20 -30 0 -30 -1 -27 -47 l3 -48 45 -5 45 -5 3 -97 3
-98 -71 0 -70 0 0 50 c0 43 3 50 19 50 14 0 21 -8 23 -27 2 -22 9 -29 31 -31
l28 -3 -3 58 -3 58 -47 3 -48 3 0 88 c0 48 3 91 7 95 4 4 34 6 68 4 l60 -3 3
-42z m222 22 c0 -18 -5 -25 -20 -25 -19 0 -20 -7 -20 -150 0 -143 -1 -150 -20
-150 -19 0 -20 7 -20 149 0 140 -1 149 -20 154 -12 3 -20 14 -20 26 0 19 6 21
60 21 57 0 60 -1 60 -25z m170 -150 l0 -175 -25 0 -25 0 0 175 0 175 25 0 25
0 0 -175z m258 128 c3 -38 1 -43 -17 -43 -14 0 -21 6 -21 19 0 20 -32 37 -50
26 -6 -4 -10 -60 -10 -136 l0 -130 28 3 c21 2 28 9 30 31 2 19 9 27 23 27 16
0 19 -7 19 -50 l0 -50 -70 0 -70 0 0 168 c0 93 3 172 7 176 4 4 34 6 68 4 l60
-3 3 -42z m257 22 c0 -15 -7 -19 -30 -20 -29 0 -30 -2 -33 -47 -3 -46 -3 -47
30 -50 25 -2 33 -8 33 -23 0 -15 -7 -20 -30 -20 -30 -1 -30 -1 -33 -63 l-3
-62 36 0 c28 0 35 -4 35 -20 0 -18 -7 -20 -60 -20 l-60 0 0 175 0 176 58 -3
c49 -3 57 -6 57 -23z m309 -72 c17 -50 34 -95 39 -99 4 -4 7 39 7 95 0 98 1
102 21 99 19 -3 20 -10 22 -181 l2 -178 -24 3 c-21 3 -28 16 -56 95 -17 51
-34 96 -38 99 -4 4 -7 -38 -7 -94 0 -95 -1 -102 -20 -102 -19 0 -20 7 -20 181
0 179 0 180 22 177 17 -2 27 -20 52 -95z m344 -85 l2 -178 -70 0 -70 0 0 173
c0 96 3 177 7 181 4 4 34 6 68 4 l60 -3 3 -177z m351 168 c8 -9 11 -45 9 -98
l-3 -83 -47 -3 -48 -3 0 -80 c0 -75 -1 -79 -22 -79 l-23 0 2 177 c2 98 3 179
3 181 0 1 26 2 59 2 38 0 63 -5 70 -14z m269 2 c17 -17 16 -172 -2 -187 -13
-11 -13 -17 8 -133 5 -24 2 -28 -18 -28 -22 0 -25 6 -36 80 -9 55 -17 80 -26
80 -11 0 -14 -19 -14 -80 0 -79 0 -80 -25 -80 l-25 0 0 173 c0 96 3 177 7 180
11 12 118 8 131 -5z m180 -170 l2 -178 -25 0 -25 0 0 181 0 180 23 -3 c22 -3
22 -5 25 -180z m257 171 c5 -7 8 -221 5 -341 0 -5 -31 -8 -70 -8 l-70 0 0 180
0 180 64 0 c36 0 68 -5 71 -11z m235 -14 c0 -22 -4 -25 -36 -25 l-35 0 3 -47
c3 -46 4 -48 36 -51 24 -2 32 -8 32 -23 0 -15 -7 -19 -35 -19 l-35 0 0 -65 0
-65 35 0 c28 0 35 -4 35 -20 0 -18 -7 -20 -57 -20 l-58 0 2 177 c2 98 3 179 3
181 0 1 25 2 55 2 52 0 55 -1 55 -25z"/>
<path d="M14490 4260 l0 -130 30 0 30 0 0 130 0 130 -30 0 -30 0 0 -130z"/>
<path d="M16932 4248 l3 -133 25 0 25 0 3 133 3 132 -31 0 -31 0 3 -132z"/>
<path d="M17290 4330 c0 -47 2 -50 25 -50 23 0 25 3 25 50 0 47 -2 50 -25 50
-23 0 -25 -3 -25 -50z"/>
<path d="M17560 4332 c0 -55 4 -62 31 -55 15 4 19 14 19 54 0 46 -2 49 -25 49
-23 0 -25 -3 -25 -48z"/>
<path d="M18000 4245 l0 -135 25 0 25 0 0 135 0 135 -25 0 -25 0 0 -135z"/>
<path d="M27870 3779 c-126 -11 -242 -44 -360 -101 -138 -68 -247 -173 -304
-290 -117 -243 -70 -539 112 -699 117 -103 258 -162 589 -249 321 -83 395
-111 461 -174 47 -44 62 -77 62 -138 -1 -161 -150 -258 -397 -258 -158 0 -254
33 -346 118 -57 53 -102 139 -112 213 l-7 49 -250 0 -251 0 6 -72 c9 -103 31
-180 78 -278 34 -70 58 -101 133 -175 78 -78 106 -98 196 -143 232 -115 519
-147 810 -92 285 54 487 187 584 383 48 97 66 181 66 307 0 180 -48 308 -155
415 -124 125 -267 186 -647 279 -346 85 -437 126 -474 213 -42 98 24 213 153
264 50 20 75 23 188 23 112 0 138 -3 189 -23 105 -42 161 -109 186 -223 l13
-58 239 0 239 0 -6 58 c-34 300 -201 500 -502 601 -127 43 -338 64 -493 50z"/>
<path d="M31980 3780 c-477 -47 -885 -393 -1016 -861 -32 -116 -44 -335 -24
-457 58 -363 317 -705 656 -867 163 -78 299 -108 484 -108 319 1 599 126 829
369 399 424 424 1031 63 1486 -241 303 -629 474 -992 438z m260 -506 c245 -73
442 -290 486 -534 50 -278 -114 -574 -389 -704 -97 -46 -165 -61 -272 -59
-234 2 -471 161 -580 388 -54 112 -69 186 -63 313 4 76 12 113 35 173 87 222
295 399 514 438 70 13 200 5 269 -15z"/>
<path d="M36394 3780 c-344 -30 -617 -214 -698 -470 -71 -222 -25 -451 120
-596 118 -118 264 -183 610 -273 321 -83 395 -111 462 -175 48 -45 62 -77 62
-143 0 -101 -63 -176 -187 -224 -71 -27 -257 -38 -346 -20 -171 36 -294 161
-322 329 l-7 42 -250 0 -251 0 7 -67 c11 -109 34 -192 77 -282 33 -68 58 -101
128 -170 183 -183 409 -264 736 -264 332 -1 570 79 740 248 92 91 136 165 165
281 25 95 27 260 5 353 -44 184 -177 321 -404 414 -56 23 -209 68 -366 107
-148 37 -295 77 -326 89 -165 63 -222 185 -139 300 72 99 250 144 435 110 145
-27 239 -119 261 -257 l7 -42 239 0 240 0 -7 63 c-34 289 -205 498 -486 591
-141 47 -346 70 -505 56z"/>
<path d="M14020 2636 l0 -1116 250 0 250 0 2 394 3 394 262 -394 263 -394 568
0 569 0 80 223 79 222 419 3 c270 1 422 -1 429 -8 5 -5 44 -106 85 -222 l76
-213 266 -3 266 -2 -451 1112 -452 1113 -211 3 -210 2 -115 -282 c-821 -2024
-781 -1929 -799 -1910 -14 14 -155 195 -600 768 -6 8 11 18 52 32 392 134 566
635 358 1032 -76 147 -206 259 -371 323 l-83 32 -492 3 -493 3 0 -1115z m864
711 c110 -48 184 -158 194 -286 10 -141 -56 -268 -172 -329 -50 -26 -56 -27
-219 -27 l-167 0 0 325 c0 179 0 329 0 334 0 4 73 6 163 4 125 -3 171 -8 201
-21z m1896 -200 c0 -2 61 -173 135 -382 74 -208 135 -382 135 -387 0 -4 -126
-8 -280 -8 -154 0 -280 3 -280 6 0 18 275 774 282 774 4 0 8 -1 8 -3z"/>
<path d="M18100 2635 l0 -1115 248 0 247 0 0 397 0 398 250 6 c237 5 254 6
323 31 103 37 174 82 251 159 79 78 132 166 168 274 37 116 44 316 15 433 -66
258 -251 449 -498 512 -71 19 -112 20 -541 20 l-463 0 0 -1115z m865 707 c68
-31 128 -93 161 -165 22 -51 27 -75 27 -142 -1 -143 -60 -247 -171 -302 -55
-27 -61 -28 -222 -28 l-165 0 -3 320 c-1 176 0 326 3 333 4 11 36 13 163 10
137 -3 164 -7 207 -26z"/>
<path d="M19870 2635 l0 -1115 245 0 245 0 0 1115 0 1115 -245 0 -245 0 0
-1115z"/>
<path d="M20760 2635 l0 -1115 393 0 c215 0 420 5 454 10 222 36 424 135 581
284 101 96 164 182 227 311 77 156 106 273 112 456 7 178 -6 276 -53 419 -112
336 -358 585 -689 694 -151 50 -215 56 -636 56 l-389 0 0 -1115z m836 631
c211 -67 373 -251 420 -476 24 -113 15 -281 -20 -385 -67 -196 -196 -331 -386
-400 -66 -24 -94 -28 -222 -33 l-148 -4 0 659 c0 363 3 663 8 668 4 4 66 5
137 2 101 -4 148 -11 211 -31z"/>
<path d="M23670 2635 l0 -1115 245 0 245 0 0 390 c0 215 3 390 8 390 4 0 124
-176 266 -390 l259 -390 309 0 c169 0 308 2 308 5 0 3 -139 185 -310 403 -170
218 -310 400 -310 404 0 3 17 12 38 18 153 49 308 184 379 330 52 107 72 180
79 300 11 157 -25 314 -98 438 -43 73 -168 198 -240 240 -31 18 -89 45 -130
60 l-73 27 -487 3 -488 3 0 -1116z m860 706 c74 -35 117 -77 152 -149 31 -62
33 -74 32 -162 0 -74 -5 -105 -22 -142 -28 -63 -86 -124 -146 -156 -48 -25
-61 -27 -218 -30 l-168 -4 0 329 c0 181 3 333 8 337 4 5 77 6 162 4 132 -4
162 -8 200 -27z"/>
<path d="M25480 2635 l0 -1115 645 0 645 0 0 220 0 220 -397 2 -398 3 -3 223
-2 222 385 0 385 0 0 225 0 225 -385 0 -385 0 2 220 3 221 398 -1 397 0 0 225
0 225 -645 0 -645 0 0 -1115z"/>
<path d="M29240 2635 l0 -1115 245 0 245 0 2 398 3 397 250 5 c242 6 252 7
323 34 218 82 352 227 424 456 19 64 23 96 23 220 0 164 -16 236 -83 365 -50
96 -181 227 -279 278 -142 74 -167 77 -690 77 l-463 0 0 -1115z m861 708 c66
-29 124 -86 156 -151 21 -44 28 -73 31 -141 5 -119 -19 -185 -98 -263 -78 -77
-118 -88 -312 -88 l-148 0 0 328 c0 181 3 332 8 336 4 5 77 6 162 4 130 -4
163 -8 201 -25z"/>
<path d="M33540 2635 l0 -1115 245 0 245 0 0 685 c0 377 3 685 8 685 4 0 176
-308 383 -683 l376 -682 251 -3 252 -2 -2 1112 -3 1113 -247 3 -248 2 -2 -690
-3 -690 -380 690 -380 690 -247 0 -248 0 0 -1115z"/>
<path d="M37760 2635 l0 -1115 650 0 650 0 0 220 0 220 -402 2 -403 3 -3 223
-2 222 385 0 385 0 0 225 0 225 -382 2 -383 3 0 218 0 218 400 2 400 2 3 223
2 222 -650 0 -650 0 0 -1115z"/>
</g>
</svg>
