<?xml version="1.0" encoding="UTF-8"?>
<svg width="19px" height="19px" viewBox="0 0 19 19" version="1.1" xmlns="http://www.w3.org/2000/svg" xmlns:xlink="http://www.w3.org/1999/xlink">
    <!-- Generator: Sketch 41.2 (35397) - http://www.bohemiancoding.com/sketch -->
    <title>Page 1</title>
    <desc>Created with Sketch.</desc>
    <defs></defs>
    <g id="Symbols" stroke="none" stroke-width="1" fill="none" fill-rule="evenodd">
        <g id="Alert-/-Info" transform="translate(-133.000000, -25.000000)" fill="#FFFFFF">
            <path d="M142.45,25.1 C137.22072,25.1 133,29.32072 133,34.55 C133,39.77928 137.22072,44 142.45,44 C147.67928,44 151.9,39.77928 151.9,34.55 C151.9,29.32072 147.67928,25.1 142.45,25.1 Z M143.54144,38.87572 L141.35856,38.87572 L141.35856,33.5 L143.52184,33.5 L143.52184,38.87572 L143.54144,38.87572 Z M142.45,32.59644 C141.79928,32.59644 141.25356,32.07144 141.25356,31.4 C141.25356,30.74928 141.77856,30.20356 142.45,30.20356 C143.10072,30.20356 143.64644,30.72856 143.64644,31.4 C143.64644,32.07144 143.10072,32.59644 142.45,32.59644 Z" id="Page-1"></path>
        </g>
    </g>
</svg>