<?xml version="1.0" encoding="UTF-8"?>
<svg width="8px" height="25px" viewBox="0 0 8 25" version="1.1" xmlns="http://www.w3.org/2000/svg" xmlns:xlink="http://www.w3.org/1999/xlink">
    <!-- Generator: Sketch 41.2 (35397) - http://www.bohemiancoding.com/sketch -->
    <title>Fill 2</title>
    <desc>Created with Sketch.</desc>
    <defs></defs>
    <g id="Symbols" stroke="none" stroke-width="1" fill="none" fill-rule="evenodd">
        <g id="Alert-/-Warning" transform="translate(-141.000000, -18.000000)" fill="#02004D">
            <path d="M148.056305,22.249734 L148.056305,22.249734 C148.053719,22.7876257 147.990363,23.3255174 147.866883,23.8511255 C147.740818,24.4038867 147.495798,25.244989 147.129239,26.3763718 C146.606875,27.9777632 146.23773,29.25267 146.023095,30.202385 C145.816218,31.1243003 145.690153,32.0610852 145.639727,33.0056282 C145.646838,33.348922 145.553744,33.6851043 145.37208,33.9753848 C145.182659,34.1848522 144.907254,34.293465 144.624092,34.2656653 C144.379072,34.2863534 144.136639,34.1951963 143.965319,34.0180541 C143.798525,33.780787 143.712541,33.4956785 143.717713,33.202812 C143.651771,32.4425228 143.598759,31.9123892 143.556091,31.6117646 C143.513423,31.31114 143.404812,30.8262617 143.23026,30.1571296 C142.954856,29.0839323 142.601226,27.9292754 142.169371,26.6944519 C141.654765,25.242403 141.331521,24.2500187 141.199637,23.712127 C141.063874,23.1341521 140.995346,22.540661 141.000518,21.9471699 C140.985002,20.9618972 141.318591,20.0050706 141.939867,19.2421954 C142.573427,18.4237208 143.561263,17.9640561 144.593707,18.0021999 C145.563441,17.9847443 146.485335,18.4288928 147.076226,19.1995261 C147.753101,20.0677816 148.098973,21.148737 148.056305,22.249734 Z M144.525825,35.5838878 L144.525825,35.5838878 C141.558438,35.5838878 140.070866,39.1726339 142.169371,41.2711873 C144.268522,43.3697406 147.856539,41.8827804 147.856539,38.9153251 C147.856539,37.0766665 146.364441,35.5838878 144.525825,35.5838878 Z" id="Fill-2"></path>
        </g>
    </g>
</svg>