<?xml version="1.0" standalone="no"?>
<!DOCTYPE svg PUBLIC "-//W3C//DTD SVG 1.1//EN" "http://www.w3.org/Graphics/SVG/1.1/DTD/svg11.dtd">
<svg xmlns="http://www.w3.org/2000/svg">
<metadata>Copyright (C) 2016 by original authors @ fontello.com</metadata>
<defs>
<font id="responsive" horiz-adv-x="1000" >
<font-face font-family="responsive" font-weight="400" font-stretch="normal" units-per-em="1000" ascent="850" descent="-150" />
<missing-glyph horiz-adv-x="1000" />
<glyph glyph-name=".notdef" unicode="&#xe801;" d="M33 0v666h265v-666h-265z m33 33h199v600h-199v-600z" horiz-adv-x="364" />

<glyph glyph-name="u1F50D" unicode="&#xe802;" d="M501 172q-100 0-181 68l-51-125-130-130q-21-15-45-15-32 0-53 22t-22 53q0 26 15 45l128 130 127 52q-67 80-67 183 0 113 83 194t196 81 196-82 82-196q0-117-80-197-83-83-198-83z m-121 158q52-50 121-50 70 0 120 51t50 121q0 69-50 120t-120 50q-70 0-120-50t-51-120q0-72 50-122z" horiz-adv-x="797" />

<glyph glyph-name="hyphen" unicode="&#xe803;" d="M18 250v250h750v-250h-750z" horiz-adv-x="786" />

<glyph glyph-name="uni23F3" unicode="&#xe804;" d="M527 526q-51-56-97-99-49-46-49-77 0-30 49-76t97-97 48-97v-118q0-34-86-73-85-39-194-39t-194 39q-86 39-86 73v118q0 46 48 97t97 97 49 76q0 31-49 77-46 43-97 99-48 52-48 96v118q0 32 87 71t193 39 193-39 87-71v-118q0-44-48-96z m-452 194q-4-7 4-14 91-52 216-52 131 0 220 50 14 11-16 30-96 54-202 54-120 0-204-54z m246-370q0 38 22 66 20 26 51 56l29 28q92 92 92 122l2 50q-101-54-222-54t-222 54l4-50q0-32 90-122 3-4 23-22t22-21l19-19q2-3 6-7t11-13 11-15 0-6q-6 1 2-12 17-29 15-33-1-2-5-2 0-24-7-37-18-32-19-33l-12-15-31-31-35-32q-90-90-90-122v-66q4 2 66 23 58 19 92 43t34 58q0 30 26 30t26-30q0-34 33-58 32-23 94-43 63-20 67-23v66q0 30-92 122l-28 28-33 32q-17 17-30 42-11 19-11 46z" horiz-adv-x="590" />

<glyph glyph-name="uni25B4" unicode="&#xe805;" d="M15 150l230 400 230-400h-460z" horiz-adv-x="490" />

<glyph glyph-name="uni2605" unicode="&#xe806;" d="M15 489q0 22 31 26l280 40 126 254q11 23 27 23 17 0 28-23l125-254 280-40q32-5 32-26 0-12-15-27l-203-197 48-279q0-1 1-5t0-7q0-27-23-27-10 0-22 6l-251 132-250-132q-12-6-23-6-23 0-23 27 0 7 1 12l48 279-203 197q-14 16-14 27z" horiz-adv-x="959" />

<glyph glyph-name="uni2611" unicode="&#xe807;" d="M176-7q-66 0-113 48t-48 113v464q0 66 48 114t113 47h464q34 0 65-14 8-4 10-13t-5-16l-27-28q-5-5-13-5-3 0-5 1-14 3-25 3h-464q-37 0-63-26t-27-63v-464q0-37 27-63t63-27h464q37 0 63 27t26 63v141q0 8 5 13l36 35q6 6 13 6 8 0 13-5t5-13v-177q0-66-47-113t-114-48h-464z m-18 428q0 18 14 32l61 62q13 13 32 13t32-13l147-147 361 361q13 13 31 13 19 0 32-13l62-61q13-13 13-32t-13-32l-455-454q-14-14-31-14-18 0-32 14l-240 240q-14 14-14 31z" horiz-adv-x="958" />

<glyph glyph-name="uni2699" unicode="&#xe808;" d="M15 413q0 7 5 13t10 7l104 16q6 21 22 51-25 35-60 77-6 6-6 14 0 4 5 12 13 18 54 59t54 41q9 0 15-5l77-60q16 9 50 21 8 71 17 104 5 16 20 16h124q18 0 20-17l15-103q33-11 50-20l80 59q5 5 13 5 9 0 14-5 72-66 92-95 4-4 4-12t-4-13q-5-7-29-38t-30-39q14-26 23-54l102-16q16-2 16-20v-124q0-7-4-13t-11-7l-104-16q-11-30-21-51 20-30 59-77 6-6 6-14 0-5-5-12-12-17-53-58t-55-42q-6 0-14 5l-77 60q-14-8-51-21-9-78-16-104-5-16-20-16h-124q-18 0-20 17l-16 103q-33 11-50 20l-79-59q-7-5-14-5-8 0-14 6-65 58-92 94-4 5-4 12 0 6 5 13t29 39 29 38q-16 31-23 55l-102 15q-16 2-16 20v124z m286-63q0-58 43-100t100-43 100 42 42 101-42 101-100 42-100-42-43-101z" horiz-adv-x="887" />

<glyph glyph-name="uni270D" unicode="&#xe809;" d="M176-7q-66 0-113 48t-48 113v464q0 66 48 114t113 47h464q34 0 65-14 8-4 10-13t-5-16l-27-28q-5-5-12-5t-16 2-15 2h-464q-37 0-63-26t-27-63v-464q0-37 27-63t63-27h464q37 0 63 27t26 63v70q0 7 5 12l36 36q9 9 20 5t11-17v-106q0-66-47-113t-114-48h-464z m196 303l375 375 161-160-375-375h-161v160z m107-53v-54h32l64 65-85 85-64-65v-31h53z m81 134l196 196q6 6 4 14t-8 8-14-4l-196-196q-9-9 0-18t18 0z m223 330l51 51q16 16 38 16t38-16l85-84q16-16 16-38t-16-38l-51-52z" horiz-adv-x="1026" />

<glyph glyph-name="uni2712" unicode="&#xe80a;" d="M75-138q-6-20-26-8-18 7-16 34 5 103 50 226-100 154-52 316 24-79 76-158 22-34 32-30 7 4 0 83-8 88-11 166-3 88 25 157 24 47 80 94 62 52 104 70-24-47-33-94-19-105 17-110 12 0 84 120 72 121 106 122 46 4 114-29t82-65q12-24 0-79t-40-83q-44-44-146-62t-114-24q-16-10 12-34 55-48 176-20-55-79-136-114-77-33-132-38-53-5-54-10-4-23 49-54 53-30 101-14-30-56-63-84-34-29-52-35t-78-11q-69-6-85-8z" horiz-adv-x="728" />

<glyph glyph-name="uni2713" unicode="&#xe80b;" d="M15 332q0 22 16 38l76 76q16 16 37 16 22 0 38-16l164-165 367 367q16 16 37 16 22 0 38-16l76-76q16-16 16-38t-16-38l-480-480q-15-15-38-15-22 0-37 15l-278 278q-16 16-16 38z" horiz-adv-x="895" />

<glyph glyph-name="uni2716" unicode="&#xe80c;" d="M15 350q0 123 60 220t153 151q101 58 216 58 123 0 220-60t151-154q57-99 57-215 0-123-60-219t-153-152q-101-58-215-58-123 0-220 60t-152 154q-57 99-57 215z m216-126q0-15 11-26l50-50q11-11 25-11 15 0 26 11l101 101 101-101q11-11 25-11t25 11l51 50q10 10 10 26 0 15-10 25l-101 101 101 101q10 10 10 25 0 16-10 26l-51 50q-11 11-25 11t-25-11l-101-101-101 101q-11 11-26 11-14 0-25-11l-50-50q-11-11-11-26 0-14 11-25l101-101-101-101q-11-11-11-25z" horiz-adv-x="887" />

<glyph glyph-name="uni27A6" unicode="&#xe80d;" d="M18 50v50q0 135 76 240 76 111 219 190 11 6 38 18t29 12q22 10 74 25t60 15h4v200l450-350-450-350v200q-49 15-110 15-289 0-390-265z" horiz-adv-x="986" />

<glyph glyph-name="uniE700" unicode="&#xe80e;" d="M815 6v-106h-800v202q41 16 82 26 95 34 129 69 35 35 35 95 0 22-23 48-24 27-31 74-1 11-23 25-21 13-25 61 0 32 14 38l4 4q-1 6-3 19-13 53-8 96t39 85q46 58 160 58t160-58 42-112l-14-88q18-8 18-42-5-55-23-60-20-5-23-26-10-46-33-73-23-28-23-49 0-60 36-95t130-69q180-65 180-122z m50 394h150v-100h-150v-150h-100v150h-150v100h150v150h100v-150z" horiz-adv-x="1030" />

<glyph glyph-name="uniE704" unicode="&#xe80f;" d="M15 350q0 123 60 220t153 151q101 58 216 58 123 0 220-60t151-154q57-99 57-215 0-123-60-219t-153-152q-101-58-215-58-123 0-220 60t-152 154q-57 99-57 215z m214 94q0-23 18-23h107q8 0 13 6t5 12q0 6 6 15 23 39 66 39 23 0 47-12t23-32q0-31-50-57-29-15-44-25t-32-33-16-55v-14q0-13 2-13 1 0 4-4t4-4q5 0 8-1h107q16 0 18 19 1 23 28 37 42 23 60 38t34 44q21 36 21 76 0 55-33 97t-80 61q-48 21-101 21-118 0-182-83-33-42-33-96v-13z m143-362q0-8 5-13t13-5h107q7 0 13 5t5 13v107q0 7-5 13t-13 5h-107q-8 0-13-5t-5-13v-107z" horiz-adv-x="887" />

<glyph glyph-name="uniE70C" unicode="&#xe810;" d="M15 707q0 29 22 51t49 21h233q32 0 67-15t55-36l399-399q20-21 20-50 0-31-20-51l-274-274q-22-21-51-21t-50 21l-399 399q-19 18-35 55t-16 67v232z m107-107q0-29 22-50t50-21 50 21 21 50-21 50-50 21-50-21-22-50z" horiz-adv-x="875" />

<glyph glyph-name="uniE712" unicode="&#xe811;" d="M18 450l450 350v-200h5q29 0 90-24 77-24 110-46 145-82 220-190 75-104 75-240v-50q-100 265-391 265-60 0-109-15v-200z" horiz-adv-x="986" />

<glyph glyph-name="uniE718" unicode="&#xe812;" d="M715 700q42 0 71-29t29-71v-350q0-41-29-70t-71-30h-200v-150l-200 150h-200q-40 0-70 30t-30 70v350q0 41 30 71t70 29h600z" horiz-adv-x="830" />

<glyph glyph-name="uniE722" unicode="&#xe813;" d="M915 750q42 0 71-29t29-71v-600q0-41-29-71t-71-29h-800q-40 0-70 30t-30 70v600q0 41 30 71t70 29h800z m0-100h-800v-600h800v600z m-450-494h-250v90h250v-90z m0 150h-250v90h250v-90z m0 150h-250v90h250v-90z m346-230l4-70h-250q0 70 6 70 84 22 84 66 0 16-27 56t-27 88q0 110 90 110t90-110q0-48-28-88t-28-56q0-20 21-35t43-23z" horiz-adv-x="1030" />

<glyph glyph-name="uniE74C" unicode="&#xe814;" d="M118-50q-40 0-70 30t-30 70v450q0 40 30 70t70 30h450q39 0 70-30t30-70v-450q0-40-30-70t-70-30h-450z m450 100v450h-450v-450h450z m-400 600v50q0 40 30 70t70 30h500q40 0 70-30t30-70v-500q0-71-50-85-45-15-100-15v100h50v500h-500v-50h-100z" horiz-adv-x="885" />

<glyph glyph-name="uniE74E" unicode="&#xe815;" d="M915 750q41 0 71-29t29-71v-600q0-42-29-71t-71-29h-800q-41 0-70 29t-30 71v600q0 40 30 70t70 30h800z m-670-94q-15 0-26-10t-12-26q0-16 11-27t27-11q38 0 38 38 0 16-11 26t-27 10z m-138-36q0-16 11-27t27-11q38 0 38 38 0 16-11 26t-27 10q-15 0-26-10t-12-26z m810-110h-802v-460h802v460z m0 80v60h-602v-60h602z" horiz-adv-x="1030" />

<glyph glyph-name="u1F4B3" unicode="&#xe816;" d="M104-79q-37 0-63 26t-26 64v678q0 37 26 64t63 26h893q37 0 63-26t26-64v-678q0-37-26-64t-63-26h-893z m-18 90q0-7 5-13t13-5h893q7 0 13 5t5 13v339h-929v-339z m18 696q-8 0-13-5t-5-13v-125h929v125q0 7-5 13t-13 5h-893z m54-571h143v-72h-143v72z m214-72v72h214v-72h-214z" horiz-adv-x="1101" />

<glyph glyph-name="u1F44D" unicode="&#xe817;" d="M655 467q55-7 108-24 52-16 52-47 0-74-61-284-62-212-107-212-144 0-288 42t-144 88v342q0 14 15 34 21 29 99 86 30 22 108 74 52 36 104 100l31 39 32 39 22 26q31 37 41 26 48-77 29-137-20-62-59-119-40-58-40-60 1-5 58-13z m-490 9q14 0 0-14-50-50-50-104v-318q0-51 52-104 10-10-2-10-41 0-66 12t-51 41q-33 37-33 99v242q0 62 33 100 34 38 63 47 30 9 54 9z" horiz-adv-x="830" />

<glyph glyph-name="u1F3C6" unicode="&#xe818;" d="M879 718q14 0 25-10t11-24q0-155-84-245-46-49-74-72t-88-61q-78-52-111-87t-33-85v-66q68-7 116-32 46-24 46-56 0-36-65-63-64-27-157-27-90 0-156 27t-66 63q0 32 46 56 48 25 118 32v66q0 50-33 84-31 32-113 88-60 38-88 61t-74 72q-84 90-84 245 0 14 11 24t25 10h172q48 92 242 92 196 0 244-92h170z m-90-218q47 59 54 148h-126q-6-159-54-262 79 56 126 114z m-324 250q-52 0-100-13t-72-34q-18-17-18-29 0-14 18-31 23-21 72-34t100-13 101 13 71 34q18 17 18 31 0 12-18 29-23 21-71 34t-101 13z m-378-102q7-89 54-148 47-58 126-114-48 103-54 262h-126z" horiz-adv-x="930" />

<glyph glyph-name="u1F30E" unicode="&#xe819;" d="M15 350q0 123 60 220t153 151q101 58 216 58 123 0 220-60t151-154q57-99 57-215 0-123-60-219t-153-152q-101-58-215-58-123 0-220 60t-152 154q-57 99-57 215z m110 198q1-3 2-7t8-1q5-5 2-12 1 1 20-12 31-22 12-29v3q1 1 1 3-5 0-11 3-2-4 1-11t6-8q-8 0-8-31v-14l1-1q-2-9 4-21t13-11q-2-11 3-12-1-6 13-20 22-9 29-30 2-8 8-14 0-2 7-13t5-14h-3q1-4 10-10t10-13q0-2 1-4t2-3 3-1q2 15-14 38-11 17-13 27-2 7-3 8 15-4 15-7-2-3 5-15t15-20q4-3 9-12l8-11-3-3q30-14 29-39 0-6 2-11t6-8 8-5 9-5q2-1 12-7t20-10 17-1q16 6 25-6 8-11 13-13 22-11 33-6 0-7 14-28 1-2 11-8t11-10q3 2 5 5 7-19 13-19 4 0 6 6t0 10l2 2q4 2 4 3-3 3-5-2-20-9-32 23-2 9 3 9 6 0 7 1t-2 4-2 4q0 1-1 7t-1 7-6 7-7 9q-3-6-9-5t-10 5q1-1-1-5l-1-2h-4-4l-1 1q6 29 7 31 0 1 1 2 12 24-7 22-13-1-18-19-2-8-7-10t-16-2q-13 1-18 5t-10 15q-6 12-6 23 0 3 2 16t2 15q0 2-4 14l6 7q6 7 9 7h3q6 2 0 7h6q4 0 9 1t5 0h12q10-8 14 1l-1 6q-2 6-1 8 3-16 18-5 1-2 10-4t10-3q9-6 11-6 2 1 4 4 3-4 7-14t7-18 5-9q3-1 7-1 2 0 2 22l-2 21q-13 4-12 13t11 16l22 11q14 11 9 22 4-1 6 5l-10 5q5 4 1 10 2 1 5 7t5 6q3-4 7-3t6 4 0 8q1 2 12 5t12 6q5-2 5 3v4q1 8 2 9 1 2 9 6t8 3l10 7q2 2 1 2 11-1 18 7 5 6-4 12 1 4-2 6t-9 3h6q6 0 7 1 9 6-3 9-16 4-34-14-6-6-9-6 9 10 2 12 4-1 14 6t13 7q1 0 3 1h2q40 14 52-1 9 14 20 18t12 5l1 13q-6-1-9 4t-5 13l-3-5q0 3-1 4t-3 1h-4l-4-2q-2 0-4 1-4 1-11 9l-8 8q5 0 5 3-2 4-5 5 1 3-1 4t-6 0v7q-2 1-6 7t-5 5q-2 0-4-2t-4-5-3-5q-7 3-13-6-7 0-10-1 11 4-1 8-6 2-9 1 13 5-2 16l2-1h3q0 3-5 6t-11 5-8 3q-10 7-32 8-12 0-12-5 0-2 1-4 8-19 0-25-4-4-2-6t7-7 6-6q3-7 0-11t-10-7-9-7q-2-1-2-6v-6q1 0 1 1l1 2q0-3 2-6t3-4 2-3-2-4-8-5l-8-4q-2-1-3 1 0 3-1 6t-5 6-4 4q-2 4-3 11t-4 11-11 3q-7 0-10-3 0 5-28 16-9 5-32 3 4 0 0 9t-12 7q-5 17 3 27 2 2 4 6t3 4 7 2q5 1 7 3t1 5-6 3q29-3 35 10 3 5 2 7h1l1-1q7 2 4 10 9 4 15 4 1 0 5-3t6-3q10-1 13 7t-6 12q4-1 4 3-1 4-1 7t-3 4-7 1h-4q-1 0-4 1h-2-4q-2-2-2-3v-1q0-2 2-3l3-1 1-1-1-1-1-1q0-2 1-3-16-8-21-13-1-1-3 3t-3 7-3 8-4 3q-7 0-10-10 1 5-7 10t-14 4q10 9-5 17h-1q-2 0-25-4-1-3 2-6v1q1 0 2-3l1-3-3 5q0-3 3-4t8-2 6-2q4-3 7-6t-1-3q-2-1-6-2t-6-3-4-4 0-7q2-8-1-9-1 1-3 5t-3 9-3 5q-5-2-7-2t-15 1q-1 0-8-1t-9-1q-5 0-17 3v-1l-1 1h1q5 9 3 14 3 0 4 1l-3 2q-1 0-14-5 3-3 9-12-12 3-15-1 0-1-7-1-11 2-11-2 0-2 5-7l-1-5q-15 12-16 12-97-47-155-138z m266-232l-1 1z m19 335q1 0 3 0t3-1q-1 0-3 1t-3 0z m25 20z m11-2q-2-1-4-3l-2 1q-1 2-5 4 1 0 5-1 3-1 6-1z m0 0q3 2 7 2t5-5q-3 2-12 3z m12-3z m79-572q1-2-1-8l-1-5q0-3 2-6 2-11-1-18 0-2-3-7t-3-6l-2 1q-21-24-16-35 3-3 7-4 0-4-6-15l2-2q-11 0-6-8 112 19 197 101h-2l3 1 3 3q-4 6-16 7 1 6-7 14t-16 9q0 3-6 7t-10 4q-1 0-3 0t-6-2-7-3-2-3q-13 13-19 13-4 0-9 4t-9 4-11-4q-1-1-2-8t-2-9q-2 1-1 5t1 8 1 8-2 4-10-2q-5-2-9-6t-8-6q-7-4-15-22l-1 4q-1 3-1 4-8-2-9 1 3-7 4-9-1 0-1 1t-1 0q-1-2 2-8t2-7z m-2 14z m5 283z m83 77h-1 1z m15-349h-1 1z m43 428q-2-1-3-1h-1q-2 3-2 4 1-2 6-3z m0 0q11 8 14 12 0-1-12-13-1 1-2 1z" horiz-adv-x="887" />

<glyph glyph-name="uniE801" unicode="&#xe81a;" d="M815 700q42 0 71-29t29-71v-600q0-41-29-71t-71-29h-700q-40 0-70 30t-30 70v600q0 41 30 71t70 29h46v-100h160v100h290v-100h160v100h44z m0-300h-700v-400h700v400z m-540 230h-70v170h70v-170z m450 170v-170h-70v170h70z" horiz-adv-x="930" />

<glyph glyph-name="uniE800" unicode="&#xe81b;" d="M791-90v150q0 54-30 81-32 29-154 89 40 30 40 84 0 17-13 33t-19 51q-2 8-14 16-13 8-14 42 0 24 12 30-10 40-8 74t23 64q27 40 95 40t96-40q29-40 24-78l-8-60q12-6 12-30-1-34-14-42-12-8-14-16-6-35-19-51t-13-33q0-42 21-66t77-48q113-47 130-80 6-7 9-61 4-71 5-101v-48h-224z m-264 262q182-78 182-124v-138h-694v184q0 44 84 78 73 30 104 64 28 31 28 88 0 21-19 44t-25 68q-1 10-18 22-15 11-20 56 0 26 10 36l4 2-5 46-5 36q-5 50 33 103t127 53 127-53 33-103l-10-82q14-8 14-38-5-45-20-56-17-12-18-22-6-45-25-68t-19-44q0-57 28-88 31-34 104-64z" horiz-adv-x="1030" />

<glyph glyph-name="uniE795" unicode="&#xe81c;" d="M576 283v-112h-55v-166q0-23-17-40t-39-17-39 16-17 41v166h-56v112h56v503q0 24 17 40t38 15q24 0 41-16t16-39v-503h55z m335 335v-112h-55v-501q0-23-16-40t-41-17q-23 0-39 16t-16 41v501h-56v112h56v168q0 24 16 40t39 15 41-16 16-39v-168h55z m-670-112v-111h-55v-390q0-23-16-40t-40-17q-23 0-39 16t-17 41v390h-56v111h56v280q0 24 16 40t40 15 40-16 16-39v-280h55z" horiz-adv-x="928" />

<glyph glyph-name="uniE790" unicode="&#xe81d;" d="M104-7q-37 0-63 26t-26 63v607q0 37 26 64t63 26h822q37 0 63-26t26-64v-607q0-37-26-63t-63-26h-822z m-18 89q0-8 5-13t13-5h822q8 0 13 5t5 13v464q0 8-5 13t-13 5h-822q-8 0-13-5t-5-13v-464z m90 54q-8 0-13 5t-5 13v35q0 7 5 13t13 5h35q7 0 13-5t5-13v-35q0-8-5-13t-13-5h-35z m0 143q-18 0-18 17v36q0 8 5 13t13 5h35q7 0 13-5t5-13v-36q0-17-18-17h-35z m0 142q-8 0-13 6t-5 12v36q0 7 5 13t13 5h35q7 0 13-5t5-13v-36q0-7-5-12t-13-6h-35z m143-285q-7 0-12 5t-6 13v35q0 7 6 13t12 5h535q8 0 13-5t5-13v-35q0-8-5-13t-13-5h-535z m0 143q-18 0-18 17v36q0 8 6 13t12 5h535q8 0 13-5t5-13v-36q0-17-18-17h-535z m-18 160v36q0 7 6 13t12 5h535q8 0 13-5t5-13v-36q0-7-5-12t-13-6h-535q-7 0-12 6t-6 12z" horiz-adv-x="1030" />

<glyph glyph-name="uniE75E" unicode="&#xe81e;" d="M113 626l226-236q16-16 16-40 0-22-16-38l-226-236q-16-16-40-16t-40 16q-36 36 0 80l186 194-186 196q-36 44 0 80 16 16 41 16 26 0 39-16z" horiz-adv-x="370" />

<glyph glyph-name="uniE75D" unicode="&#xe81f;" d="M257 626q13 16 39 16 25 0 41-16 38-36 0-80l-186-196 186-194q38-44 0-80-16-16-40-16t-40 16l-226 236q-16 16-16 38 0 24 16 40z" horiz-adv-x="371" />

<glyph glyph-name="u1F4C5" unicode="&#xe820;" d="M86-150q-28 0-49 21t-22 50v715q0 28 22 50t49 21h72v54q0 37 26 63t63 26h36q37 0 63-26t26-63v-54h214v54q0 37 27 63t63 26h35q37 0 64-26t26-63v-54h71q29 0 51-21t21-50v-715q0-28-21-50t-51-21h-786z m161 71v161h-161v-161h161z m0 197v178h-161v-178h161z m0 214v161h-161v-161h161z m-18 268q0-8 6-13t12-5h36q7 0 13 5t5 13v161q0 7-5 13t-13 5h-36q-7 0-12-5t-6-13v-161z m232-679v161h-178v-161h178z m0 197v178h-178v-178h178z m0 214v161h-178v-161h178z m215-411v161h-179v-161h179z m0 197v178h-179v-178h179z m0 214v161h-179v-161h179z m-18 268q0-8 5-13t13-5h35q7 0 13 5t5 13v161q0 7-5 13t-13 5h-35q-8 0-13-5t-5-13v-161z m214-679v161h-161v-161h161z m0 197v178h-161v-178h161z m-161 214h161v161h-161v-161z" horiz-adv-x="959" />

<glyph glyph-name="u1F4CB" unicode="&#xe821;" d="M85-150q-29 0-49 20t-21 50v760q0 28 21 49t49 21l60-150h440l60 150q28 0 49-21t21-49v-760q0-29-20-50t-50-20h-560z m460 800h-360l-44 100h108l36 100h160l36-100h110z" horiz-adv-x="730" />

<glyph glyph-name="u1F4E3" unicode="&#xe822;" d="M873 242q9-120-39-140-28-12-61 3-36 16-65 40-37 28-106 42t-142 7q-26-4-41-18t-7-38q26-65 46-108 4-10 24-22 19-12 24-20 13-34-22-46-45-20-102-40-30-10-54 42-23 56-58 132-6 13-34 17-27 4-46 31l-20-7q-14-5-19-6t-16-4-18 0-17 5-22 10q-40 24-54 60-16 30-5 79 11 47 43 61 126 52 213 108 84 54 124 103 34 42 59 92 22 44 25 78 7 76 51 95 48 19 130-70t142-228q58-137 67-258z m-95-42q9 5 10 38 2 38-11 98-27 133-108 251-40 58-67 84-29 27-36 23-9-5-10-42-2-40 10-105 25-141 108-252 44-57 68-76 29-23 36-19z" horiz-adv-x="890" />

<glyph glyph-name="u1F4E6" unicode="&#xe823;" d="M885 750q12 0 21-9t9-21v-120h-900v120q0 12 9 21t21 9h840z m-750-800q-29 0-49 20t-21 50v530h800v-530q0-29-20-50t-50-20h-660z m180 500v-100h300v100h-300z" horiz-adv-x="930" />

<glyph glyph-name="u1F4F0" unicode="&#xe824;" d="M715 800q42 0 71-29t29-71v-700q0-41-29-71t-71-29h-600q-40 0-70 30t-30 70v700q0 41 30 71t70 29h600z m0-100h-600v-700h600v700z m-250-500h-250v50h250v-50z m150 200h-200v50h200v-50z m-200 200h200v-100h-200v100z m-50-200h-150v200h150v-200z m-50-100h-100v50h100v-50z m50 50h250v-50h-250v50z m250-250h-400v50h400v-50z m-100 100v50h100v-50h-100z" horiz-adv-x="830" />

<glyph glyph-name="uniE82B" unicode="&#xe82b;" d="M218 800h250q19 0 35-15t15-35v-50h-350v50q0 19 16 35t34 15z m-50-150h350v-25q0-73-51-124t-124-51-124 51-51 124v25z m-50-250h375l-341-500h-134v300q0 43 9 87t33 78 58 35z m450 0q34 0 58-36t33-79 9-85v-300h-441z" horiz-adv-x="686" />

<glyph glyph-name="uniF098" unicode="&#xf098;" d="M176-79q-66 0-113 47t-48 114v536q0 66 48 114t113 47h535q66 0 114-47t47-114v-536q0-66-47-114t-114-47h-535z m-18 577q0-20 4-36t13-41 11-29q33-91 121-179 89-89 178-121l24-9 26-9q10-4 26-7t30-3q34 0 73 19 65 30 65 101 0 7-1 9-2 5-21 17-17 11-50 27l-29 16q-2 1-10 7t-14 9-13 3q-9 0-26-18-13-14-32-37-15-18-24-18-13 0-35 15-107 59-166 166-16 24-16 35 0 4 3 9t8 9 9 9 10 8 7 5q36 26 36 43 0 6-3 13t-8 14-7 9q-20 39-37 68l-14 23q-13 10-18 11-71 0-101-65-19-39-19-73z" horiz-adv-x="887" />

<glyph glyph-name="twitter" unicode="&#xf099;" d="M904 622q-37-54-90-93 0-8 0-23 0-73-21-145t-64-139-103-117-144-82-181-30q-151 0-276 81 19-2 43-2 126 0 224 77-59 1-105 36t-64 89q19-3 34-3 24 0 48 6-63 13-104 62t-41 115v2q38-21 82-23-37 25-59 64t-22 86q0 49 25 91 68-83 164-133t208-55q-5 21-5 41 0 75 53 127t127 53q79 0 132-57 61 12 115 44-21-64-80-100 52 6 104 28z" horiz-adv-x="928.6" />

<glyph glyph-name="facebook" unicode="&#xf09a;" d="M535 843v-147h-87q-48 0-65-20t-17-60v-106h164l-22-165h-142v-424h-171v424h-142v165h142v122q0 104 58 161t155 57q82 0 127-7z" horiz-adv-x="571.4" />

<glyph glyph-name="uniF09E" unicode="&#xf09e;" d="M15 100q0 44 32 76t75 31 76-31 31-76-31-75-76-32-75 32-32 75z m0 357q0 15 11 26t25 10h3q186-16 315-146 130-129 146-316 1-16-9-27t-27-11h-75q-14 0-24 9t-11 23q-12 128-103 219t-219 103q-14 1-23 11t-9 24v75z m0 206v80q0 15 11 26t25 10h1q156-8 288-70t230-161q99-98 161-230t70-288q1-15-10-26t-26-11h-80q-14 0-24 10t-12 23q-7 124-57 232t-128 184-185 128-231 58q-14 1-23 11t-10 24z" horiz-adv-x="816" />

<glyph glyph-name="uniF0C9" unicode="&#xf0c9;" d="M51-7q-14 0-25 11t-11 25v71q0 14 11 25t25 11h785q14 0 25-11t11-25v-71q0-14-11-25t-25-11h-785z m0 286q-14 0-25 11t-11 24v72q0 14 11 25t25 10h785q14 0 25-10t11-25v-72q0-14-11-24t-25-11h-785z m-36 321v71q0 14 11 25t25 11h785q14 0 25-11t11-25v-71q0-14-11-25t-25-11h-785q-14 0-25 11t-11 25z" horiz-adv-x="887" />

<glyph glyph-name="uniF0D6" unicode="&#xf0d6;" d="M51-7q-14 0-25 11t-11 25v642q0 14 11 25t25 11h1000q14 0 25-11t10-25v-642q0-14-10-25t-25-11h-1000z m35 214q58 0 101-42t42-101h643q0 58 42 101t101 42v286q-59 0-101 43t-42 100h-643q0-58-42-100t-101-43v-286z m286 143q0 82 45 154 21 33 56 56t78 22q84 0 133-78 45-72 45-154t-45-154q-49-78-133-78-43 0-78 23t-56 55q-45 72-45 154z m68 84l43-44q24 21 31 31h1v-160h-71v-54h214v54h-72v250h-63z" horiz-adv-x="1101" />

<glyph glyph-name="uniF0E0" unicode="&#xf0e0;" d="M104-79q-37 0-63 26t-26 64v443q25-29 56-49 234-160 278-192 7-5 19-14l16-13 14-9q9-6 16-9l17-9q10-5 22-10 32-13 61-13h2q27 0 61 13t53 27q27 18 51 37l278 192q34 24 56 49v-443q0-37-26-64t-63-26h-822z m-89 685q0 44 24 73t65 28h822q36 0 63-26t26-63q0-86-95-153l-128-89-96-66-61-43q-42-30-59-40-36-20-60-20h-2q-33 0-89 38-29 20-53 39l-261 181q-33 23-64 64t-32 77z" horiz-adv-x="1030" />

<glyph glyph-name="uniF0FE" unicode="&#xf0fe;" d="M176-79q-66 0-113 47t-48 114v536q0 66 48 114t113 47h535q66 0 114-47t47-114v-536q0-66-47-114t-114-47h-535z m-18 393q0-14 11-24t25-11h178v-179q0-14 11-25t25-11h71q14 0 25 11t11 25v179h179q14 0 25 11t10 24v72q0 14-10 25t-25 10h-179v179q0 14-11 25t-25 11h-71q-14 0-25-11t-11-25v-179h-178q-14 0-25-10t-11-25v-72z" horiz-adv-x="887" />

<glyph glyph-name="uniF107" unicode="&#xf107;" d="M15 439q0 7 6 13l27 28q6 6 13 6t13-6l219-219 220 219q6 6 13 6 6 0 12-6l28-28q6-6 6-13t-6-13l-260-260q-5-5-13-5-7 0-12 5l-260 260q-6 6-6 13z" horiz-adv-x="587" />

<glyph glyph-name="uniF304" unicode="&#xf304;" d="M176-79q-66 0-113 47t-48 114v536q0 66 48 114t113 47h535q66 0 114-47t47-114v-536q0-66-47-114t-114-47h-535z m-18 249q0-9 8-14 32-24 81-40t97-16q75 0 139 32 87 41 140 125t52 195v6q15 13 35 35t19 34q0 7-5 13t-13 5l-8-2q11 20 11 31 0 8-5 13t-13 5q-3 0-9-3-33-19-54-24-37 35-86 35-54 0-91-40t-37-95v-7q-63 8-106 36t-86 78q-6 6-16 6-14 0-22-27t-9-49q0-37 16-66-16-2-16-18 0-64 45-104-7-5-7-14v-3l1-2q18-61 75-85-44-24-92-24-2 0-13 1t-13 1q-8 0-13-5t-5-13z" horiz-adv-x="887" />

<glyph glyph-name="uniF308" unicode="&#xf308;" d="M15 82v536q0 66 48 114t113 47h535q66 0 114-47t47-114v-536q0-66-47-114t-114-47h-195l-1 1v374h99q18 0 18 13l6 92q1 8-4 14t-14 6h-105v41q0 25 7 32t30 7q30 0 65-8 8-2 15 3t7 12l13 93q3 16-14 20-53 15-110 15-174 0-174-167v-48h-53q-7 0-12-5t-6-14v-96q0-10 18-10h53v-374l6-1h-184q-66 0-113 47t-48 114z" horiz-adv-x="887" />
</font>
</defs>
</svg>
