<?xml version="1.0" encoding="UTF-8"?>
<svg width="22px" height="19px" viewBox="0 0 22 19" version="1.1" xmlns="http://www.w3.org/2000/svg" xmlns:xlink="http://www.w3.org/1999/xlink">
    <!-- Generator: Sketch 41.2 (35397) - http://www.bohemiancoding.com/sketch -->
    <title>Page 1</title>
    <desc>Created with Sketch.</desc>
    <defs></defs>
    <g id="Symbols" stroke="none" stroke-width="1" fill="none" fill-rule="evenodd">
        <g id="Alert-/-Share-desktop" transform="translate(-26.000000, -39.000000)" fill="#FFFFFF">
            <path d="M47.8134133,47.9767603 L38.1165867,39.0954136 C38.0121867,38.998747 37.8567467,38.9716803 37.72528,39.0320003 C37.5938133,39.089227 37.5091333,39.219147 37.5091333,39.3626003 L37.5091333,44.359107 C35.4988533,44.4619603 26,45.5310936 26,56.5812536 C26,56.733987 26.09512,56.8700936 26.2385733,56.9226803 C26.3773867,56.9710136 26.5436533,56.933507 26.64032,56.814027 C30.3182933,52.4203336 33.2558,51.4958136 35.0715867,51.4958136 C36.34604,51.4958136 37.1967067,51.9474403 37.5091333,52.1469603 L37.5091333,57.123747 C37.5091333,57.2656536 37.5938133,57.3971203 37.72528,57.454347 C37.7720667,57.4756136 37.8219467,57.4860536 37.8718267,57.4860536 C37.96076,57.4860536 38.0485333,57.4528003 38.1165867,57.3909336 L47.8134133,48.5099736 C47.8888133,48.4403736 47.93096,48.3452536 47.93096,48.2424003 C47.93096,48.139547 47.8872667,48.0459736 47.8134133,47.9767603 Z" id="Page-1"></path>
        </g>
    </g>
</svg>