<?xml version="1.0" encoding="UTF-8"?>
<svg width="21px" height="18px" viewBox="0 0 21 18" version="1.1" xmlns="http://www.w3.org/2000/svg" xmlns:xlink="http://www.w3.org/1999/xlink">
    <!-- Generator: Sketch 41.2 (35397) - http://www.bohemiancoding.com/sketch -->
    <title>Page 1</title>
    <desc>Created with Sketch.</desc>
    <defs></defs>
    <g id="Symbols" stroke="none" stroke-width="1" fill="none" fill-rule="evenodd">
        <g id="Form-/-Photo-upload-button" transform="translate(-12.000000, -14.000000)" fill="#FFFFFF">
            <path d="M22.07492,14.0018572 L22.07492,14.0018572 C21.9027378,14.0147559 21.7410545,14.0921479 21.6249664,14.2199347 L16.6754772,19.6193775 C16.406105,19.8923494 16.4178038,20.3351037 16.7012745,20.5930771 C16.9859451,20.8519503 17.4277995,20.8213535 17.6737742,20.526184 L21.4491846,16.4064091 L21.4491846,26.8255339 C21.4443851,27.1818972 21.7677517,27.5145628 22.1241149,27.5145628 C22.4804782,27.5145628 22.8038448,27.1818972 22.7990453,26.8255339 L22.7990453,16.4064091 L26.5744557,20.526184 C26.8204303,20.8213535 27.2622847,20.8519503 27.5469554,20.5930771 C27.8304261,20.3351037 27.8421249,19.8923494 27.5727527,19.6193775 L22.6232634,14.2199347 C22.4837778,14.0663505 22.2809988,13.9865588 22.07492,14.0018572 L22.07492,14.0018572 Z M12.6681907,25.2365979 L12.6681907,25.2365979 C12.2932294,25.2401975 11.9920604,25.5506655 12.0001596,25.9256268 L12.0001596,31.3250696 C12.0001596,31.6976312 12.3025284,32 12.67509,32 L31.5731399,32 C31.9457015,32 32.2480703,31.6976312 32.2480703,31.3250696 L32.2480703,25.9256268 C32.2540697,25.5494656 31.9493011,25.2413974 31.5731399,25.2413974 C31.1969787,25.2413974 30.8922102,25.5494656 30.8982096,25.9256268 L30.8982096,30.6501393 L13.3500203,30.6501393 L13.3500203,25.9256268 C13.3581195,25.5446661 13.0488514,25.2329983 12.6681907,25.2365979 L12.6681907,25.2365979 Z" id="Page-1"></path>
        </g>
    </g>
</svg>